<svg style="fill: white" width="212" height="41" viewBox="0 0 212 41" fill="none" xmlns="http://www.w3.org/2000/svg">
              <path 
                d="M14.934 33.6429C12.2081 33.6429 8.45827 33.4394 6.07237 32.4557C3.44507 31.3754 1.88699 29.9075 1.01893 27.6929C0.167978 25.521 0 22.692 0 18.8315C0 15.39 0 11.1063 2.66955 7.57845C4.51429 5.137 8.35265 1.85936 12.4203 0.428068C14.0492 -0.1433 15.8208 -0.1433 17.4496 0.428068C21.5183 1.85936 25.3557 5.13802 27.2004 7.57845C29.866 11.1063 29.869 15.39 29.87 18.8315C29.87 22.692 29.702 25.521 28.851 27.6929C27.984 29.9065 26.4249 31.3754 23.7976 32.4557C21.4117 33.4374 17.6619 33.6429 14.937 33.6429H14.934ZM14.937 2.77185C14.3891 2.77192 13.8452 2.86475 13.3276 3.04652C9.94493 4.2357 6.50288 7.07388 4.84824 9.26304C2.89989 11.8398 2.74398 14.9872 2.74197 18.8335C2.74197 22.2688 2.87977 24.9157 3.56778 26.6665C4.15218 28.1588 5.17716 29.0906 7.10539 29.8831C7.99758 30.2503 10.2014 30.8658 14.934 30.8658C19.6666 30.8658 21.8694 30.2554 22.7616 29.8831C24.6898 29.0906 25.7148 28.1588 26.2992 26.6665C26.9872 24.9117 27.127 22.2647 27.125 18.8335C27.125 14.9872 26.9671 11.8398 25.0197 9.26304C23.3641 7.07388 19.922 4.2357 16.5454 3.0516C16.0279 2.86973 15.4839 2.77689 14.936 2.77694L14.937 2.77185ZM14.936 5.42184C14.6797 5.42039 14.425 5.46269 14.1826 5.54696C11.323 6.55304 8.31041 9.04128 6.92735 10.8703C5.47489 12.793 5.36123 15.3839 5.35922 18.8345C5.35922 21.4143 5.37129 24.1691 6.00095 25.695C6.70505 27.4081 9.88156 28.3053 14.934 28.3053C20.9752 28.3053 23.2132 27.0846 23.866 25.695C24.2211 24.9391 24.3398 23.7001 24.4233 22.3502C23.9927 22.985 22.5845 24.3003 20.423 24.9046C18.2614 25.5088 16.2849 25.4315 14.2188 24.9229C12.4837 24.4956 11.0001 23.6381 9.90771 22.1762C8.4291 20.1987 7.94628 17.9678 8.42206 15.5508C8.86564 13.3006 9.99522 11.5082 12.0633 10.4197C13.2643 9.78795 14.4864 9.49905 15.8463 9.78795C17.2545 10.0931 18.3469 10.8785 19.1395 12.0605C19.7949 13.009 20.0886 14.1653 19.9663 15.3158C19.8638 16.3532 19.4415 17.3317 18.7593 18.1133C18.0733 18.9179 17.0916 19.5029 16.144 19.3961C14.9279 19.2608 14.3697 17.7481 15.1613 16.977C15.4912 16.6555 15.8885 16.4592 16.2909 16.2649C16.4656 16.1865 16.6209 16.0699 16.7458 15.9236C16.8707 15.7773 16.962 15.6048 17.0131 15.4185C17.3088 14.3758 16.6037 13.0676 15.5405 12.7736C14.4059 12.4603 13.4584 12.9171 12.6356 13.6526C11.6871 14.501 11.2837 15.6464 11.1801 16.8824C10.9005 20.2139 13.5791 22.4346 17.2153 22.4275C21.5877 22.4204 24.715 19.2343 24.3911 15.1978C24.2241 13.4745 23.8368 12.0443 22.9467 10.8693C21.5636 9.03823 18.5511 6.55202 15.6924 5.54594C15.4508 5.4613 15.1968 5.41832 14.941 5.41879"
                />
              <path 
                d="M36.559 18.5509V8.26324C36.5539 8.06554 36.5879 7.8688 36.6592 7.68462C36.7305 7.50045 36.8375 7.33258 36.9739 7.19092C37.1104 7.04925 37.2735 6.93665 37.4537 6.85977C37.6339 6.78289 37.8274 6.74329 38.023 6.74329C38.2186 6.74329 38.4121 6.78289 38.5923 6.85977C38.7725 6.93665 38.9356 7.04925 39.0721 7.19092C39.2085 7.33258 39.3155 7.50045 39.3868 7.68462C39.4581 7.8688 39.4922 8.06554 39.487 8.26324V18.5509C39.487 20.1083 40.0674 21.9211 42.92 21.9211C45.7726 21.9211 46.353 20.1083 46.353 18.5509V8.26324C46.3479 8.06554 46.382 7.8688 46.4532 7.68462C46.5245 7.50045 46.6315 7.33258 46.768 7.19092C46.9044 7.04925 47.0676 6.93665 47.2478 6.85977C47.4279 6.78289 47.6215 6.74329 47.8171 6.74329C48.0126 6.74329 48.2062 6.78289 48.3864 6.85977C48.5665 6.93665 48.7297 7.04925 48.8661 7.19092C49.0026 7.33258 49.1096 7.50045 49.1809 7.68462C49.2521 7.8688 49.2862 8.06554 49.2811 8.26324V18.5509C49.2811 21.4613 48.0187 24.5243 42.92 24.5243C37.8213 24.5243 36.559 21.4643 36.559 18.5509Z"
                />
              <path 
                d="M52.8136 10.4331C52.8136 10.0743 52.9545 9.73014 53.2054 9.47641C53.4563 9.22268 53.7966 9.08014 54.1514 9.08014C54.5062 9.08014 54.8464 9.22268 55.0973 9.47641C55.3482 9.73014 55.4891 10.0743 55.4891 10.4331V12.5775H56.6298C56.9253 12.5864 57.2057 12.7114 57.4116 12.9259C57.6174 13.1404 57.7326 13.4276 57.7326 13.7265C57.7326 14.0255 57.6174 14.3127 57.4116 14.5272C57.2057 14.7417 56.9253 14.8666 56.6298 14.8755H55.4932V21.0575C55.4932 21.6444 55.9961 21.973 56.4528 21.973C56.7614 21.9821 57.0545 22.1125 57.2696 22.3365C57.4848 22.5605 57.6051 22.8606 57.6051 23.1729C57.6051 23.4852 57.4848 23.7852 57.2696 24.0092C57.0545 24.2332 56.7614 24.3636 56.4528 24.3727C54.2067 24.3727 52.8176 22.917 52.8176 20.9008V14.8755H52.2372C51.9417 14.8666 51.6613 14.7417 51.4554 14.5272C51.2496 14.3127 51.1344 14.0255 51.1344 13.7265C51.1344 13.4276 51.2496 13.1404 51.4554 12.9259C51.6613 12.7114 51.9417 12.5864 52.2372 12.5775H52.8176L52.8136 10.4331Z"
                />
              <path 
                d="M64.6023 12.2204C68.8681 12.2204 69.6497 15.5388 69.6497 17.3007C69.6497 18.2447 69.6497 19.3423 68.1107 19.3423H61.8744C61.8744 21.1805 63.1619 22.0228 64.8276 22.0228C65.7217 22.0273 66.5952 21.7507 67.3272 21.2314C67.6048 21.0524 67.807 20.9506 68.1318 20.9506C68.2876 20.9505 68.4419 20.9814 68.5858 21.0417C68.7298 21.1019 68.8606 21.1902 68.9707 21.3016C69.0809 21.413 69.1682 21.5453 69.2278 21.6909C69.2873 21.8364 69.3179 21.9924 69.3178 22.15C69.316 22.3291 69.2769 22.5059 69.2031 22.6687C69.1293 22.8315 69.0223 22.9768 68.8893 23.095C68.4598 23.5019 67.122 24.4989 64.8246 24.4989C61.3161 24.4989 59.1455 22.5844 59.1455 18.321C59.1455 14.4157 61.1653 12.2174 64.5983 12.2174L64.6023 12.2204ZM61.9478 17.0423H66.9449C66.9449 15.791 66.2408 14.5652 64.5983 14.5652C63.1337 14.5652 62.0736 15.4085 61.9478 17.0423Z"
                />
              <path 
                d="M81.7411 16.6618V23.0442C81.7411 23.8102 81.1376 24.3717 80.3782 24.3717C79.5735 24.3717 79.0143 23.8102 79.0143 23.0442V17.1725C79.0143 15.7178 78.4339 14.7219 76.7933 14.7219C74.9003 14.7219 74.2696 15.8409 74.2696 17.3515V23.0482C74.2696 23.8142 73.6882 24.3758 72.9067 24.3758C72.1251 24.3758 71.5427 23.8142 71.5427 23.0482V13.7514C71.5524 13.3922 71.7003 13.051 71.9549 12.8003C72.2095 12.5497 72.5508 12.4095 72.9062 12.4095C73.2615 12.4095 73.6028 12.5497 73.8574 12.8003C74.1121 13.051 74.26 13.3922 74.2696 13.7514C74.7484 13.0119 75.8086 12.2204 77.5004 12.2204C80.9334 12.2204 81.7411 14.4411 81.7411 16.6618Z"
                />
              <path 
                d="M89.1362 24.4989C85.7284 24.4989 83.604 22.5335 83.604 18.3729C83.604 14.1858 85.7244 12.2204 89.1362 12.2204C92.5481 12.2204 94.6685 14.1858 94.6685 18.3729C94.6685 22.5335 92.5481 24.4989 89.1362 24.4989ZM89.1362 14.5683C87.3186 14.5683 86.3601 15.845 86.3601 18.3729C86.3601 20.8743 87.3186 22.15 89.1362 22.15C90.9538 22.15 91.9134 20.8743 91.9134 18.3729C91.9134 15.845 90.9538 14.5683 89.1362 14.5683Z"
                />
              <path 
                d="M99.233 15.5896C99.233 17.4787 105.442 16.6069 105.442 20.8235C105.442 23.2222 103.422 24.448 100.823 24.448C98.6526 24.448 96.9859 23.4521 96.3552 22.6606C96.1615 22.4435 96.0541 22.1616 96.0535 21.8692C96.0589 21.5472 96.1878 21.2398 96.413 21.0121C96.6382 20.7843 96.9421 20.654 97.2605 20.6485C97.5494 20.6503 97.8277 20.7588 98.043 20.9537C98.725 21.5152 99.5579 22.0004 100.82 22.0004C101.956 22.0004 102.688 21.6953 102.688 20.9832C102.688 18.9151 96.5031 19.9873 96.5031 15.6476C96.5031 13.3506 98.3971 12.2275 100.719 12.2275C102.511 12.2275 104.101 12.9162 104.808 13.8104C104.985 14.024 105.075 14.2973 105.061 14.5754C105.055 14.8974 104.926 15.2045 104.701 15.4322C104.476 15.6599 104.172 15.7904 103.854 15.7961C103.501 15.7961 103.273 15.6425 102.996 15.4391C102.441 15.0321 101.759 14.6252 100.724 14.6252C99.7902 14.6252 99.235 14.9569 99.235 15.5947"
                /> 
              <path
                d="M125.559 13.8796C126.039 12.8837 127.225 12.2459 128.285 12.2459C128.457 12.241 128.629 12.2711 128.789 12.3343C128.949 12.3975 129.095 12.4926 129.219 12.614C129.342 12.7353 129.44 12.8804 129.507 13.0408C129.574 13.2011 129.609 13.3734 129.609 13.5475C129.609 13.7215 129.574 13.8938 129.507 14.0542C129.44 14.2145 129.342 14.3596 129.219 14.481C129.095 14.6023 128.949 14.6974 128.789 14.7606C128.629 14.8239 128.457 14.8539 128.285 14.8491C126.543 14.8491 125.559 15.9731 125.559 17.6832V22.9903C125.55 23.3495 125.402 23.6907 125.147 23.9413C124.893 24.192 124.551 24.3322 124.196 24.3322C123.841 24.3322 123.499 24.192 123.245 23.9413C122.99 23.6907 122.842 23.3495 122.833 22.9903V13.7514C122.842 13.3922 122.99 13.051 123.245 12.8003C123.499 12.5497 123.841 12.4095 124.196 12.4095C124.551 12.4095 124.893 12.5497 125.147 12.8003C125.402 13.051 125.55 13.3922 125.559 13.7514V13.8796Z"
                />
              <path 
                d="M130.885 9.38632C130.885 8.21239 131.466 7.70172 132.501 7.70172C133.56 7.70172 134.141 8.21035 134.141 9.38632C134.141 10.3822 133.56 10.9946 132.501 10.9946C131.466 10.9946 130.885 10.3843 130.885 9.38632ZM133.864 22.9902C133.854 23.3495 133.706 23.6907 133.452 23.9413C133.197 24.192 132.856 24.3322 132.5 24.3322C132.145 24.3322 131.804 24.192 131.549 23.9413C131.294 23.6907 131.146 23.3495 131.137 22.9902V13.7514C131.146 13.3922 131.294 13.051 131.549 12.8003C131.804 12.5497 132.145 12.4095 132.5 12.4095C132.856 12.4095 133.197 12.5497 133.452 12.8003C133.706 13.051 133.854 13.3922 133.864 13.7514V22.9902Z"
                />
              <path 
                d="M143.809 23.8356L140.048 18.7299L139.243 19.3678V23.0442C139.243 23.8102 138.64 24.3717 137.88 24.3717C137.098 24.3717 136.517 23.8102 136.517 23.0442V7.32433C136.517 6.55833 137.098 5.9968 137.88 5.9968C138.638 5.9968 139.243 6.55833 139.243 7.32433V16.3353L143.812 12.7108C144.14 12.4554 144.392 12.3781 144.695 12.3781C144.867 12.3781 145.037 12.4125 145.196 12.4793C145.355 12.546 145.5 12.6439 145.621 12.7673C145.743 12.8906 145.839 13.037 145.904 13.198C145.97 13.3591 146.003 13.5316 146.002 13.7057C146.002 13.9071 145.956 14.1058 145.869 14.287C145.782 14.4682 145.656 14.6273 145.5 14.7524L142.193 17.3058L145.904 22.2324C146.08 22.4667 146.177 22.7519 146.182 23.0462C146.182 23.2203 146.149 23.3928 146.083 23.5539C146.018 23.7149 145.922 23.8613 145.8 23.9846C145.679 24.108 145.534 24.2058 145.375 24.2726C145.216 24.3394 145.046 24.3738 144.874 24.3738C144.668 24.3767 144.464 24.3296 144.279 24.2363C144.095 24.143 143.935 24.0063 143.814 23.8377"
                />
              <path 
                d="M152.819 24.4989C149.411 24.4989 147.287 22.5335 147.287 18.3729C147.287 14.1858 149.406 12.2204 152.819 12.2204C156.232 12.2204 158.351 14.1858 158.351 18.3729C158.351 22.5335 156.231 24.4989 152.819 24.4989ZM152.819 14.5683C151.003 14.5683 150.043 15.845 150.043 18.3729C150.043 20.8743 151.003 22.15 152.819 22.15C154.636 22.15 155.596 20.8743 155.596 18.3729C155.596 15.845 154.637 14.5683 152.819 14.5683Z"
                />
              <path 
                d="M161.224 10.4331C161.224 10.0743 161.365 9.73014 161.616 9.47641C161.867 9.22268 162.207 9.08014 162.562 9.08014C162.917 9.08014 163.257 9.22268 163.508 9.47641C163.759 9.73014 163.9 10.0743 163.9 10.4331V12.5775H165.036C165.332 12.5864 165.612 12.7114 165.818 12.9259C166.024 13.1404 166.139 13.4276 166.139 13.7265C166.139 14.0255 166.024 14.3127 165.818 14.5272C165.612 14.7417 165.332 14.8666 165.036 14.8755H163.9V21.0575C163.9 21.6444 164.403 21.973 164.859 21.973C165.168 21.9821 165.461 22.1125 165.676 22.3365C165.891 22.5605 166.012 22.8606 166.012 23.1729C166.012 23.4852 165.891 23.7852 165.676 24.0092C165.461 24.2332 165.168 24.3636 164.859 24.3727C162.613 24.3727 161.224 22.917 161.224 20.9008V14.8755H160.644C160.348 14.8666 160.068 14.7417 159.862 14.5272C159.656 14.3127 159.541 14.0255 159.541 13.7265C159.541 13.4276 159.656 13.1404 159.862 12.9259C160.068 12.7114 160.348 12.5864 160.644 12.5775H161.224V10.4331Z"
                />
              <path 
                d="M115.741 10.4331C115.741 10.2554 115.776 10.0795 115.843 9.91535C115.91 9.7512 116.009 9.60205 116.133 9.47641C116.257 9.35078 116.405 9.25112 116.567 9.18313C116.729 9.11513 116.903 9.08014 117.079 9.08014C117.255 9.08014 117.429 9.11513 117.591 9.18313C117.753 9.25112 117.901 9.35078 118.025 9.47641C118.149 9.60205 118.248 9.7512 118.315 9.91535C118.382 10.0795 118.417 10.2554 118.417 10.4331V12.5775H119.552C119.704 12.5729 119.856 12.5993 119.998 12.655C120.139 12.7106 120.269 12.7945 120.378 12.9017C120.487 13.0088 120.574 13.137 120.633 13.2787C120.692 13.4204 120.723 13.5727 120.723 13.7265C120.723 13.8803 120.692 14.0326 120.633 14.1743C120.574 14.316 120.487 14.4442 120.378 14.5513C120.269 14.6585 120.139 14.7424 119.998 14.7981C119.856 14.8538 119.704 14.8801 119.552 14.8755H118.417V21.0575C118.417 21.6444 118.92 21.973 119.376 21.973C119.685 21.9821 119.978 22.1125 120.193 22.3365C120.408 22.5605 120.529 22.8606 120.529 23.1729C120.529 23.4852 120.408 23.7852 120.193 24.0092C119.978 24.2332 119.685 24.3636 119.376 24.3727C117.129 24.3727 115.741 22.917 115.741 20.9008V14.8755H115.161C114.865 14.8666 114.585 14.7417 114.379 14.5272C114.173 14.3127 114.058 14.0255 114.058 13.7265C114.058 13.4276 114.173 13.1404 114.379 12.9259C114.585 12.7114 114.865 12.5864 115.161 12.5775H115.741V10.4331Z"
                />
              <path 
                d="M170.059 15.6405C169.882 15.7784 169.67 15.8639 169.448 15.8874C169.225 15.911 169.001 15.8716 168.799 15.7737C168.598 15.6758 168.427 15.5233 168.307 15.3331C168.186 15.1429 168.12 14.9225 168.115 14.6965C168.118 14.3844 168.235 14.0845 168.443 13.8542C169.147 13.0627 170.413 12.2204 172.583 12.2204C175.714 12.2204 177.581 13.7768 177.581 16.4828V23.0187C177.581 23.1964 177.547 23.3723 177.48 23.5365C177.412 23.7006 177.314 23.8498 177.19 23.9754C177.065 24.1011 176.918 24.2007 176.756 24.2687C176.593 24.3367 176.419 24.3717 176.244 24.3717C176.068 24.3717 175.894 24.3367 175.732 24.2687C175.569 24.2007 175.422 24.1011 175.298 23.9754C175.173 23.8498 175.075 23.7006 175.008 23.5365C174.94 23.3723 174.906 23.1964 174.906 23.0187C174.224 24.1164 173.113 24.4989 171.599 24.4989C169.125 24.4989 167.485 22.9414 167.485 20.6444C167.485 18.2701 169.378 17.0453 171.573 17.0453H174.881V16.5815C174.881 15.433 174.047 14.667 172.583 14.667C171.477 14.667 170.69 15.1756 170.059 15.6364V15.6405ZM174.881 19.8998V19.1877H171.927C170.821 19.1877 170.21 19.7228 170.21 20.6424C170.21 21.6118 170.892 22.1998 172.306 22.1998C173.643 22.1998 174.881 21.3311 174.881 19.9018"
                />
              <path 
                d="M180.584 12.5775H187.072C187.39 12.583 187.694 12.7133 187.919 12.9411C188.144 13.1688 188.273 13.4762 188.279 13.7982C188.281 14.0868 188.183 14.3669 188.001 14.5896L182.675 21.8122H187.269C187.424 21.8076 187.579 21.8346 187.724 21.8915C187.869 21.9485 188.001 22.0342 188.112 22.1437C188.224 22.2532 188.312 22.3843 188.373 22.5291C188.434 22.6739 188.465 22.8295 188.465 22.9867C188.465 23.1439 188.434 23.2995 188.373 23.4443C188.312 23.5891 188.224 23.7201 188.112 23.8296C188.001 23.9391 187.869 24.0249 187.724 24.0818C187.579 24.1388 187.424 24.1657 187.269 24.1611H180.302C179.996 24.1572 179.704 24.0326 179.488 23.8139C179.271 23.5952 179.148 23.2996 179.143 22.9902C179.141 22.7093 179.24 22.4372 179.421 22.2242L184.853 14.8714H180.587C180.286 14.8714 179.997 14.7504 179.784 14.535C179.571 14.3197 179.451 14.0275 179.451 13.7229C179.451 13.4183 179.571 13.1262 179.784 12.9108C179.997 12.6954 180.286 12.5744 180.587 12.5744L180.584 12.5775ZM183.289 10.8125L180.941 9.23067C180.761 9.11439 180.624 8.94248 180.549 8.74065C180.474 8.53882 180.466 8.31792 180.526 8.111C180.586 7.90408 180.71 7.72226 180.88 7.59274C181.051 7.46322 181.258 7.39296 181.471 7.39247C181.678 7.38906 181.881 7.45131 182.051 7.57049L183.871 8.85021L185.682 7.57354C185.852 7.45436 186.055 7.39211 186.262 7.39552C186.475 7.39601 186.682 7.46627 186.853 7.59579C187.023 7.72531 187.147 7.90713 187.207 8.11405C187.267 8.32097 187.258 8.54187 187.184 8.7437C187.109 8.94553 186.971 9.11744 186.792 9.23372L184.444 10.8156C184.273 10.9323 184.071 10.9946 183.864 10.9946C183.657 10.9946 183.455 10.9323 183.284 10.8156"
                />
              <path 
                d="M192.296 15.6405C192.119 15.7784 191.907 15.8639 191.685 15.8874C191.463 15.911 191.238 15.8716 191.037 15.7737C190.835 15.6758 190.665 15.5233 190.544 15.3331C190.423 15.1429 190.357 14.9225 190.353 14.6965C190.355 14.3844 190.472 14.0843 190.681 13.8542C191.385 13.0627 192.65 12.2204 194.821 12.2204C197.95 12.2204 199.819 13.7768 199.819 16.4828V23.0187C199.809 23.3713 199.664 23.7061 199.414 23.9521C199.164 24.198 198.829 24.3356 198.481 24.3356C198.132 24.3356 197.797 24.198 197.547 23.9521C197.297 23.7061 197.152 23.3713 197.142 23.0187C196.461 24.1164 195.351 24.4989 193.836 24.4989C191.363 24.4989 189.722 22.9414 189.722 20.6444C189.722 18.2701 191.615 17.0453 193.811 17.0453H197.117V16.5815C197.117 15.433 196.284 14.667 194.821 14.667C193.714 14.667 192.928 15.1756 192.296 15.6364V15.6405ZM197.117 19.8998V19.1877H194.164C193.057 19.1877 192.448 19.7228 192.448 20.6424C192.448 21.6118 193.129 22.1998 194.543 22.1998C195.881 22.1998 197.117 21.3311 197.117 19.9018"
                />
              <path 
                d="M204.793 15.5896C204.793 17.4787 211.002 16.6069 211.002 20.8235C211.002 23.2222 208.982 24.448 206.383 24.448C204.212 24.448 202.546 23.4521 201.915 22.6606C201.721 22.4435 201.614 22.1616 201.613 21.8692C201.619 21.5472 201.748 21.2398 201.973 21.0121C202.198 20.7843 202.502 20.654 202.82 20.6485C203.109 20.6503 203.388 20.7588 203.603 20.9537C204.285 21.5152 205.118 22.0004 206.38 22.0004C207.516 22.0004 208.248 21.6953 208.248 20.9832C208.248 18.9151 202.063 19.9873 202.063 15.6476C202.063 13.3506 203.957 12.2275 206.278 12.2275C208.071 12.2275 209.661 12.9162 210.368 13.8104C210.545 14.024 210.635 14.2973 210.621 14.5754C210.615 14.8974 210.486 15.2045 210.261 15.4322C210.036 15.6599 209.732 15.7904 209.414 15.7961C209.061 15.7961 208.833 15.6425 208.556 15.4391C208.001 15.0321 207.319 14.6252 206.284 14.6252C205.35 14.6252 204.795 14.9569 204.795 15.5947"
                />
              <path 
                d="M39.0394 35.816V30.7367C39.0384 30.6609 39.0527 30.5856 39.0816 30.5156C39.1105 30.4456 39.1533 30.3824 39.2074 30.3298C39.3158 30.2217 39.462 30.161 39.6143 30.161C39.7666 30.161 39.9127 30.2217 40.0211 30.3298C40.075 30.3825 40.1177 30.4458 40.1466 30.5158C40.1755 30.5857 40.19 30.6609 40.1891 30.7367V33.2158C40.3312 33.0826 40.499 32.9804 40.682 32.9157C40.8991 32.8309 41.1302 32.7881 41.363 32.7896C42.0516 32.7896 42.5861 33.0073 42.9663 33.4427C43.3465 33.8781 43.5363 34.5261 43.5356 35.3867C43.5356 36.2493 43.3371 36.896 42.9401 37.3266C42.5432 37.7573 41.9765 37.9729 41.2402 37.9736C40.5744 37.9736 40.0406 37.7878 39.6389 37.4161C39.2372 37.0445 39.0361 36.5111 39.0354 35.816H39.0394ZM40.1851 35.816C40.1851 36.1808 40.2817 36.4663 40.4748 36.6725C40.5738 36.7749 40.6931 36.8551 40.8248 36.9077C40.9565 36.9602 41.0978 36.9841 41.2392 36.9777C41.4032 36.9866 41.5668 36.9541 41.7152 36.8831C41.8636 36.812 41.9921 36.7047 42.0892 36.5708C42.2843 36.2995 42.3819 35.9014 42.3819 35.3765C42.3819 34.8516 42.285 34.4528 42.0912 34.1802C41.9942 34.0467 41.8659 33.9397 41.718 33.8686C41.57 33.7976 41.4069 33.7649 41.2433 33.7733C41.1237 33.7733 41.005 33.7922 40.8912 33.8292C40.7848 33.8602 40.6832 33.9061 40.5895 33.9656C40.5142 34.0158 40.442 34.0705 40.3732 34.1293C40.3229 34.1722 40.2758 34.2188 40.2324 34.2687L40.1851 34.3216V35.816Z"
                />
              <path 
                d="M43.8172 39.8423C43.7653 39.7911 43.7244 39.7296 43.697 39.6617C43.6697 39.5938 43.6565 39.5209 43.6583 39.4476C43.6563 39.3747 43.6694 39.3022 43.6968 39.2348C43.7242 39.1673 43.7652 39.1064 43.8172 39.056C43.8691 39.0047 43.9307 38.9645 43.9982 38.9378C44.0658 38.9111 44.138 38.8983 44.2105 38.9003C44.3553 38.9051 44.4993 38.8766 44.6317 38.8171C44.7641 38.7575 44.8815 38.6684 44.9749 38.5565C45.1687 38.3279 45.3649 37.9651 45.5634 37.468L43.9238 33.6553C43.8957 33.5834 43.8817 33.5067 43.8826 33.4295C43.8827 33.3535 43.8978 33.2783 43.9269 33.2082C43.9561 33.1382 43.9987 33.0747 44.0523 33.0215C44.106 32.9683 44.1696 32.9264 44.2394 32.8983C44.3092 32.8702 44.3838 32.8564 44.4589 32.8578C44.5844 32.8524 44.7076 32.892 44.807 32.9697C44.8898 33.035 44.9546 33.1208 44.9951 33.2189L46.1659 36.2086L47.3367 33.2189C47.3771 33.1211 47.4415 33.0353 47.5238 32.9697C47.6236 32.8922 47.7471 32.8526 47.8728 32.8578C47.948 32.8569 48.0227 32.8713 48.0923 32.9C48.162 32.9286 48.2253 32.9711 48.2786 33.0248C48.3319 33.0785 48.3741 33.1423 48.4027 33.2127C48.4313 33.2831 48.4457 33.3585 48.4452 33.4345C48.4457 33.5118 48.4317 33.5884 48.4039 33.6604L46.4204 38.1943C45.8839 39.4015 45.1486 40.0051 44.2145 40.0051C44.1418 40.007 44.0695 39.994 44.0019 39.9669C43.9343 39.9398 43.8729 39.8991 43.8212 39.8474"
                />
              <path 
                d="M51.0443 36.8627C51.0471 36.7251 51.1026 36.594 51.199 36.4969C51.2954 36.3998 51.4252 36.3442 51.5613 36.3419C51.682 36.3464 51.7977 36.3915 51.8902 36.4701C52.2212 36.7467 52.6367 36.8987 53.0661 36.9004C53.5951 36.9004 53.8597 36.7562 53.8597 36.468C53.8597 36.4175 53.8499 36.3675 53.8307 36.3209C53.8115 36.2743 53.7834 36.232 53.748 36.1964C53.6631 36.1106 53.5599 36.0455 53.4463 36.0062C53.3236 35.9584 53.1837 35.9045 53.0278 35.8536C52.8719 35.8027 52.712 35.7519 52.549 35.701C52.3826 35.6509 52.2221 35.5827 52.0702 35.4975C51.921 35.4165 51.7804 35.32 51.6508 35.2097C51.5218 35.0957 51.4203 34.9534 51.3541 34.7936C51.2771 34.6082 51.2391 34.4087 51.2424 34.2076C51.2424 33.7506 51.4101 33.3996 51.7454 33.1548C52.0806 32.91 52.5065 32.7872 53.0228 32.7865C53.3732 32.783 53.7212 32.8458 54.0488 32.9717C54.3195 33.064 54.562 33.2256 54.7529 33.4406C54.8201 33.5312 54.8555 33.6418 54.8535 33.755C54.8519 33.8914 54.7977 34.0217 54.7024 34.1183C54.6072 34.2148 54.4784 34.2699 54.3435 34.2717C54.2098 34.2604 54.0826 34.2087 53.9784 34.1232C53.7051 33.905 53.3689 33.7828 53.0208 33.7753C52.8592 33.7647 52.6979 33.8 52.5551 33.877C52.5033 33.9084 52.4608 33.9533 52.4319 34.007C52.4031 34.0607 52.389 34.1212 52.3911 34.1822C52.3926 34.2369 52.4066 34.2905 52.4319 34.3388C52.4572 34.3871 52.4931 34.4289 52.537 34.4609C52.6494 34.5503 52.7764 34.6191 52.9122 34.6644C53.064 34.7183 53.235 34.7732 53.4221 34.8282C53.6126 34.8839 53.7994 34.9518 53.9814 35.0316C54.1585 35.1084 54.327 35.2039 54.4843 35.3165C54.6413 35.4313 54.7689 35.5823 54.8565 35.7569C54.9562 35.9549 55.006 36.1747 55.0013 36.3968C55.0013 36.8943 54.8193 37.2757 54.4552 37.5443C54.091 37.8128 53.6223 37.9461 53.0469 37.9461C52.6547 37.9519 52.2659 37.8718 51.9073 37.7111C51.6233 37.5954 51.3689 37.4163 51.163 37.1872C51.0828 37.0953 51.0369 36.978 51.0332 36.8556"
                />
              <path 
                d="M55.7417 35.816V30.7367C55.7409 30.6609 55.7554 30.5857 55.7843 30.5158C55.8131 30.4458 55.8558 30.3825 55.9097 30.3298C56.0181 30.2217 56.1643 30.161 56.3166 30.161C56.4689 30.161 56.615 30.2217 56.7235 30.3298C56.7777 30.3823 56.8206 30.4456 56.8497 30.5156C56.8788 30.5855 56.8933 30.6608 56.8924 30.7367V33.2158C57.0344 33.0824 57.2023 32.9802 57.3853 32.9157C57.6024 32.8308 57.8335 32.788 58.0663 32.7896C58.7556 32.7896 59.2901 33.0073 59.6696 33.4427C60.0491 33.8781 60.2389 34.5261 60.2389 35.3867C60.2389 36.2493 60.0404 36.896 59.6435 37.3266C59.2465 37.7573 58.6805 37.9729 57.9456 37.9736C57.2804 37.9736 56.7469 37.7878 56.3452 37.4161C55.9436 37.0445 55.7424 36.5111 55.7417 35.816ZM56.8924 35.816C56.8924 36.1808 56.9887 36.4663 57.1811 36.6725C57.2801 36.7749 57.3994 36.8551 57.5311 36.9077C57.6628 36.9602 57.8041 36.9841 57.9456 36.9777C58.1096 36.9865 58.2733 36.954 58.4219 36.883C58.5704 36.8119 58.6992 36.7046 58.7965 36.5708C58.991 36.2995 59.0882 35.9014 59.0882 35.3765C59.0882 34.8516 58.99 34.4528 58.7935 34.1802C58.6967 34.0465 58.5685 33.9393 58.4204 33.8683C58.2724 33.7972 58.1092 33.7646 57.9456 33.7733C57.8261 33.7734 57.7073 33.7923 57.5935 33.8292C57.4871 33.8601 57.3855 33.906 57.2918 33.9656C57.2162 34.0158 57.1437 34.0705 57.0745 34.1293C57.0242 34.1722 56.9771 34.2188 56.9337 34.2687L56.8874 34.3216L56.8924 35.816Z"
                />
              <path 
                d="M60.7408 36.3348C60.7408 35.8329 60.9065 35.442 61.2377 35.1619C61.5848 34.8766 62.0219 34.7274 62.4689 34.7417H63.864V34.5678C63.8668 34.4655 63.845 34.364 63.8005 34.272C63.756 34.1801 63.6901 34.1004 63.6085 34.0398C63.3991 33.8958 63.1483 33.826 62.8954 33.8415C62.7031 33.8384 62.5122 33.8747 62.3341 33.9483C62.1564 34.025 61.9877 34.1216 61.8312 34.2362C61.7377 34.3014 61.627 34.3368 61.5133 34.3379C61.4472 34.339 61.3815 34.3265 61.3203 34.3011C61.2591 34.2758 61.2036 34.2381 61.1573 34.1904C61.1093 34.1444 61.0712 34.0888 61.0456 34.0272C61.02 33.9655 61.0073 33.8992 61.0084 33.8323C61.0093 33.7008 61.0597 33.5746 61.1492 33.4793C61.5616 33.0202 62.1444 32.7906 62.8974 32.7906C63.5633 32.7906 64.083 32.9483 64.4565 33.2636C64.83 33.579 65.0164 34.0198 65.0157 34.5861V37.3439C65.0165 37.4188 65.002 37.4931 64.9731 37.562C64.9442 37.631 64.9015 37.6932 64.8478 37.7447C64.7674 37.8232 64.6662 37.8763 64.5564 37.8974C64.4467 37.9185 64.3332 37.9067 64.23 37.8635C64.1268 37.8202 64.0383 37.7475 63.9755 37.6541C63.9126 37.5607 63.878 37.4508 63.8761 37.3378C63.6199 37.763 63.1552 37.9753 62.482 37.9746C61.961 37.9746 61.5408 37.823 61.2216 37.5199C61.0632 37.3683 60.9385 37.1843 60.8559 36.9801C60.7734 36.7759 60.7348 36.5562 60.7429 36.3358L60.7408 36.3348ZM61.8936 36.3358C61.8888 36.428 61.9065 36.52 61.9451 36.6037C61.9836 36.6875 62.0419 36.7603 62.1149 36.8159C62.2617 36.9292 62.4827 36.9858 62.7777 36.9858C63.0566 36.9924 63.3288 36.8991 63.5462 36.7224C63.6495 36.6402 63.7323 36.5345 63.7879 36.414C63.8434 36.2935 63.8702 36.1615 63.866 36.0286V35.7326H62.6198C62.428 35.7202 62.2379 35.7752 62.0817 35.8882C62.0177 35.9427 61.9672 36.0115 61.9342 36.0892C61.9012 36.1669 61.8866 36.2514 61.8915 36.3358"
                />
              <path 
                d="M68.1892 36.4314C68.1798 36.218 68.2205 36.0054 68.3079 35.8109C68.3953 35.6164 68.527 35.4456 68.6922 35.3124C69.0274 35.0412 69.4821 34.9055 70.0561 34.9055H71.5569V34.6156C71.5646 34.4548 71.5385 34.2942 71.4802 34.1445C71.422 33.9947 71.3329 33.8592 71.2189 33.7469C70.9929 33.5332 70.6858 33.4264 70.2975 33.4264C70.0562 33.4185 69.8161 33.4632 69.5934 33.5576C69.3879 33.6578 69.2061 33.8014 69.0603 33.9788C69.0274 34.0237 68.9851 34.0606 68.9364 34.087C68.8877 34.1134 68.8338 34.1285 68.7787 34.1314C68.738 34.1322 68.6976 34.1245 68.66 34.1088C68.6224 34.093 68.5885 34.0695 68.5604 34.0398C68.5314 34.0106 68.5086 33.9756 68.4934 33.9371C68.4781 33.8987 68.4708 33.8575 68.4719 33.816C68.4722 33.751 68.4903 33.6872 68.5242 33.6319C68.693 33.3667 68.9307 33.1534 69.2112 33.0154C69.5488 32.8528 69.9197 32.7737 70.2935 32.7845C70.9071 32.7845 71.3825 32.9493 71.7198 33.2789C72.0571 33.6085 72.2247 34.0541 72.2227 34.6156V37.5789C72.2231 37.623 72.2143 37.6667 72.197 37.7071C72.1797 37.7476 72.1542 37.784 72.1221 37.8139C72.091 37.8459 72.0539 37.8714 72.013 37.8888C71.9721 37.9063 71.9282 37.9154 71.8838 37.9156C71.8398 37.9155 71.7963 37.9065 71.7558 37.889C71.7154 37.8715 71.6788 37.846 71.6484 37.8139C71.6164 37.7839 71.5909 37.7476 71.5736 37.7071C71.5563 37.6666 71.5475 37.623 71.5478 37.5789V37.1893C71.4113 37.4429 71.1966 37.6444 70.9362 37.763C70.6512 37.9008 70.3388 37.9704 70.0229 37.9665C69.4502 37.9665 68.9999 37.8308 68.672 37.5596C68.3441 37.2883 68.1802 36.9092 68.1802 36.4223L68.1892 36.4314ZM68.8732 36.4223C68.8674 36.5506 68.8917 36.6786 68.9441 36.7956C68.9966 36.9127 69.0757 37.0155 69.175 37.0957C69.3761 37.2571 69.6796 37.3378 70.0853 37.3378C70.4608 37.3459 70.8266 37.2174 71.1163 36.9757C71.404 36.7325 71.5478 36.3948 71.5478 35.9584V35.5057H70.0531C69.6923 35.5057 69.407 35.5827 69.1971 35.7366C69.0925 35.8153 69.009 35.9191 68.954 36.0386C68.899 36.1582 68.8744 36.2897 68.8823 36.4212"
                />
              <path 
                d="M73.3975 39.6531V33.1945C73.3968 33.1493 73.4054 33.1044 73.4227 33.0627C73.44 33.021 73.4657 32.9835 73.4981 32.9523C73.5298 32.9199 73.5675 32.8943 73.6092 32.8768C73.6508 32.8593 73.6954 32.8504 73.7405 32.8506C73.7849 32.8505 73.8289 32.8592 73.87 32.8764C73.9111 32.8935 73.9484 32.9187 73.9798 32.9504C74.0112 32.9822 74.0361 33.0199 74.053 33.0615C74.0699 33.103 74.0786 33.1475 74.0785 33.1924V33.5393C74.2127 33.3138 74.4068 33.1309 74.6387 33.0113C74.9116 32.8591 75.2193 32.7819 75.5309 32.7875C76.2424 32.7875 76.7916 33.0025 77.1785 33.4325C77.5654 33.8625 77.7589 34.5088 77.7589 35.3714C77.7589 36.2381 77.5644 36.8882 77.1755 37.3215C76.7866 37.7549 76.2384 37.9715 75.5309 37.9715C75.2234 37.9774 74.9199 37.9002 74.6518 37.7477C74.4189 37.6219 74.2215 37.4381 74.0785 37.2137V39.6551C74.0785 39.7002 74.0697 39.7449 74.0524 39.7865C74.0351 39.8281 74.0098 39.8657 73.9779 39.8972C73.9474 39.9298 73.9105 39.9557 73.8697 39.9732C73.8288 39.9907 73.7849 39.9995 73.7405 39.999C73.6504 39.9962 73.5648 39.9587 73.501 39.8943C73.4373 39.8298 73.4003 39.7432 73.3975 39.6521V39.6531ZM74.4637 33.8933C74.1955 34.2168 74.0614 34.7098 74.0614 35.3724C74.0614 36.035 74.1955 36.5297 74.4637 36.8566C74.5926 37.016 74.7562 37.1431 74.9416 37.228C75.1271 37.3129 75.3295 37.3532 75.5329 37.3459C76.0332 37.3459 76.4141 37.1828 76.6756 36.8566C76.9371 36.5304 77.0679 36.0357 77.0679 35.3724C77.0679 34.7132 76.9338 34.2212 76.6655 33.8964C76.3973 33.5715 76.0131 33.4091 75.5128 33.4091C75.3135 33.4038 75.1156 33.4447 74.9343 33.5286C74.753 33.6125 74.593 33.7373 74.4667 33.8933"
                />
              <path 
                d="M78.7245 39.6531V33.1945C78.7236 33.1492 78.7321 33.1043 78.7494 33.0626C78.7668 33.0209 78.7925 32.9833 78.8251 32.9523C78.8565 32.9199 78.8941 32.8941 78.9356 32.8767C78.9771 32.8592 79.0216 32.8503 79.0665 32.8506C79.111 32.8505 79.155 32.8592 79.1961 32.8763C79.2373 32.8935 79.2746 32.9186 79.3061 32.9504C79.3376 32.9821 79.3626 33.0198 79.3797 33.0614C79.3967 33.1029 79.4055 33.1474 79.4055 33.1924V33.5393C79.539 33.3136 79.7329 33.1306 79.9647 33.0113C80.2377 32.8591 80.5453 32.7819 80.8569 32.7875C81.5684 32.7875 82.1176 33.0025 82.5045 33.4325C82.8915 33.8625 83.0846 34.5094 83.0839 35.3734C83.0839 36.2401 82.8894 36.8902 82.5005 37.3235C82.1116 37.7569 81.5634 37.9736 80.8559 37.9736C80.5484 37.9795 80.2449 37.9022 79.9768 37.7498C79.744 37.6242 79.5469 37.4403 79.4045 37.2157V39.6571C79.4044 39.7022 79.3955 39.7469 79.3782 39.7884C79.361 39.83 79.3357 39.8677 79.3039 39.8993C79.2734 39.9318 79.2366 39.9577 79.1957 39.9752C79.1549 39.9927 79.1109 40.0015 79.0665 40.001C78.9764 39.9982 78.8908 39.9607 78.827 39.8963C78.7633 39.8318 78.7263 39.7452 78.7235 39.6541L78.7245 39.6531ZM79.7897 33.8954C79.5215 34.2188 79.3874 34.7119 79.3874 35.3745C79.3874 36.037 79.5215 36.5318 79.7897 36.8586C79.9186 37.018 80.0822 37.145 80.2677 37.2299C80.4532 37.3148 80.6555 37.3552 80.8589 37.348C81.3592 37.348 81.7401 37.1848 82.0016 36.8586C82.2631 36.5324 82.3942 36.0377 82.3949 35.3745C82.3949 34.7153 82.2608 34.2233 81.9926 33.8984C81.7243 33.5736 81.3401 33.4111 80.8398 33.4111C80.6405 33.4058 80.4426 33.4467 80.2613 33.5306C80.08 33.6146 79.9201 33.7393 79.7937 33.8954"
                />
              <path 
                d="M83.7237 36.4314C83.7141 36.218 83.7547 36.0053 83.8421 35.8108C83.9295 35.6163 84.0613 35.4455 84.2266 35.3124C84.5619 35.0412 85.0162 34.9055 85.5895 34.9055H87.0983V34.6156C87.1062 34.4547 87.08 34.294 87.0215 34.1442C86.9631 33.9944 86.8737 33.8589 86.7593 33.7468C86.534 33.5332 86.2269 33.4264 85.838 33.4264C85.5983 33.419 85.36 33.4638 85.1389 33.5576C84.9331 33.6577 84.751 33.8014 84.6048 33.9788C84.5722 34.0237 84.53 34.0607 84.4815 34.0871C84.4329 34.1135 84.3792 34.1286 84.3242 34.1314C84.2835 34.1324 84.243 34.1247 84.2054 34.1089C84.1679 34.0932 84.1339 34.0696 84.1059 34.0398C84.0769 34.0105 84.0541 33.9756 84.0389 33.9371C84.0236 33.8987 84.0163 33.8574 84.0174 33.816C84.0178 33.7511 84.0355 33.6875 84.0687 33.6319C84.2381 33.3671 84.4756 33.154 84.7557 33.0154C85.0933 32.853 85.4642 32.7739 85.838 32.7845C86.4522 32.7845 86.9276 32.9493 87.2643 33.2789C87.6009 33.6085 87.7685 34.0541 87.7672 34.6156V37.5789C87.7677 37.623 87.7591 37.6668 87.7417 37.7073C87.7244 37.7478 87.6988 37.7841 87.6666 37.8139C87.6357 37.846 87.5988 37.8715 87.5581 37.8889C87.5173 37.9064 87.4735 37.9155 87.4292 37.9156C87.3853 37.9155 87.3417 37.9065 87.3013 37.889C87.2609 37.8715 87.2243 37.846 87.1939 37.8139C87.1619 37.7839 87.1364 37.7476 87.1191 37.7071C87.1018 37.6666 87.093 37.623 87.0933 37.5789V37.1893C86.9568 37.4429 86.742 37.6444 86.4817 37.763C86.1967 37.9007 85.8842 37.9703 85.5684 37.9665C84.9951 37.9665 84.5448 37.8308 84.2175 37.5596C83.8903 37.2883 83.7263 36.9092 83.7257 36.4223L83.7237 36.4314ZM84.4177 36.4223C84.4119 36.5506 84.4362 36.6786 84.4886 36.7956C84.541 36.9127 84.6202 37.0155 84.7195 37.0957C84.9206 37.2571 85.2244 37.3378 85.6308 37.3378C86.0059 37.346 86.3715 37.2174 86.6608 36.9757C86.9494 36.7325 87.0933 36.3948 87.0933 35.9584V35.5057H85.5845C85.2244 35.5057 84.9391 35.5827 84.7285 35.7366C84.6239 35.8153 84.5404 35.9191 84.4854 36.0386C84.4304 36.1582 84.4058 36.2897 84.4137 36.4212"
                />
              <path 
                d="M88.931 37.5738V33.1944C88.93 33.1488 88.9385 33.1034 88.9558 33.0612C88.9731 33.019 88.9989 32.9809 89.0316 32.9493C89.0641 32.9176 89.1026 32.8927 89.1447 32.8761C89.1868 32.8595 89.2318 32.8515 89.277 32.8526C89.3217 32.8514 89.3662 32.8594 89.4078 32.8761C89.4494 32.8928 89.4871 32.9179 89.5187 32.9499C89.5504 32.9819 89.5752 33.0201 89.5918 33.0622C89.6083 33.1042 89.6162 33.1492 89.615 33.1944V33.6715C89.7305 33.4096 89.9258 33.1919 90.1722 33.05C90.4536 32.8863 90.7741 32.8043 91.0986 32.813C91.1854 32.8135 91.2685 32.8486 91.3299 32.9107C91.3913 32.9728 91.426 33.0568 91.4265 33.1446C91.4265 33.1889 91.4176 33.2328 91.4003 33.2736C91.383 33.3143 91.3577 33.3511 91.3259 33.3816C91.2965 33.414 91.2608 33.4398 91.2209 33.4573C91.1811 33.4748 91.138 33.4837 91.0946 33.4833C90.6185 33.4833 90.2523 33.6363 89.9962 33.9421C89.74 34.248 89.6116 34.6549 89.6109 35.1629V37.5789C89.6122 37.6241 89.6043 37.6691 89.5878 37.7111C89.5712 37.7532 89.5464 37.7914 89.5147 37.8234C89.4831 37.8554 89.4453 37.8805 89.4038 37.8972C89.3622 37.914 89.3177 37.9219 89.273 37.9207C89.2274 37.9211 89.1822 37.9123 89.1401 37.8948C89.098 37.8774 89.0597 37.8516 89.0275 37.8189C88.9949 37.7874 88.9691 37.7493 88.9518 37.7071C88.9344 37.6648 88.926 37.6195 88.927 37.5738"
                />
              <path 
                d="M91.8067 35.3734C91.8067 34.5494 91.9995 33.9126 92.3851 33.463C92.7706 33.0134 93.3101 32.7889 94.0035 32.7896C94.2542 32.7862 94.504 32.8204 94.7448 32.8913C94.9431 32.9488 95.1285 33.0445 95.291 33.1731C95.4297 33.2872 95.554 33.418 95.6611 33.5627C95.7622 33.7017 95.8403 33.8562 95.8925 34.0205C95.9407 34.1694 95.978 34.3217 96.0041 34.4762C96.0269 34.6127 96.0384 34.7508 96.0383 34.8892C96.0383 34.9909 96.0383 35.0764 96.0303 35.1344C96.0222 35.2035 96.0074 35.2717 95.986 35.3378C95.9665 35.4119 95.9202 35.4758 95.8563 35.5169C95.7816 35.5586 95.697 35.5787 95.6118 35.5749H92.4987C92.4987 36.112 92.6419 36.5392 92.9282 36.8566C93.2146 37.174 93.6075 37.333 94.1071 37.3337C94.3475 37.3399 94.5868 37.298 94.8112 37.2106C95.0153 37.1221 95.2076 37.0079 95.3835 36.8709C95.44 36.8296 95.5071 36.8059 95.5766 36.8027C95.6173 36.8018 95.6577 36.8095 95.6953 36.8253C95.7329 36.8411 95.7668 36.8645 95.7949 36.8943C95.8239 36.9235 95.8467 36.9585 95.8619 36.9969C95.8772 37.0354 95.8845 37.0766 95.8834 37.1181C95.8818 37.165 95.8709 37.2111 95.8512 37.2535C95.8314 37.296 95.8034 37.334 95.7688 37.3652C95.6795 37.4529 95.5818 37.5313 95.4771 37.5992C95.3016 37.7045 95.1137 37.7869 94.9178 37.8444C94.6546 37.93 94.3796 37.9726 94.1031 37.9705C93.3708 37.9705 92.8045 37.7576 92.4042 37.3317C92.0038 36.9058 91.8027 36.252 91.8007 35.3704L91.8067 35.3734ZM92.4927 34.9706H95.3604C95.3627 34.7775 95.3417 34.5848 95.298 34.3969C95.2571 34.223 95.1892 34.0569 95.0969 33.9045C94.9951 33.7434 94.8484 33.6163 94.6754 33.5393C94.4631 33.4456 94.233 33.4004 94.0015 33.4071C93.5468 33.4071 93.1901 33.5457 92.9312 33.8231C92.6727 34.0998 92.5289 34.4823 92.4967 34.9706"
                />
              <path 
                d="M96.994 36.6583V30.4997C96.9935 30.4549 97.0022 30.4104 97.0195 30.3691C97.0368 30.3277 97.0624 30.2905 97.0946 30.2597C97.1258 30.2275 97.1631 30.2019 97.2042 30.1845C97.2453 30.167 97.2894 30.158 97.334 30.1579C97.4238 30.1582 97.5099 30.1944 97.5734 30.2586C97.6369 30.3229 97.6727 30.4099 97.6729 30.5007V36.6593C97.6729 37.0662 97.8151 37.2714 98.0994 37.2747C98.1413 37.2743 98.1829 37.2822 98.2218 37.2981C98.2606 37.314 98.296 37.3375 98.3258 37.3673C98.3576 37.3961 98.383 37.4314 98.4003 37.4708C98.4177 37.5103 98.4265 37.553 98.4263 37.5962C98.4265 37.6394 98.4177 37.6821 98.4003 37.7216C98.383 37.761 98.3576 37.7963 98.3258 37.8251C98.2652 37.8846 98.1839 37.9175 98.0994 37.9166C97.7427 37.9166 97.4684 37.8105 97.2766 37.5982C97.0849 37.386 96.9896 37.073 96.991 36.6593"
                />
            </svg>